<?xml version="1.0" encoding="UTF-8"?>
<svg id="Layer_2" data-name="Layer 2" xmlns="http://www.w3.org/2000/svg" viewBox="0 0 105.38 105.46">
  <defs>
    <style>
      .cls-1 {
        fill: none;
      }

      .cls-1, .cls-2 {
        stroke-width: 0px;
      }
    </style>
  </defs>
  <g id="Layer_1-2" data-name="Layer 1">
    <g>
      <g>
        <path class="cls-1" d="m32.61,81.44c-.81-.68-3.14-.26-4.38.43-3.52,1.93-6.84,4.22-10.2,6.41-.16.11-.32.2-.48.29,3.28,3.09,7.72,4.97,12.71,4.98.36,0,.72,0,1.08,0,.75-2.63,1.44-5.16,2.03-7.7.33-1.41.13-3.67-.76-4.42Z"/>
        <path class="cls-1" d="m52.75,18.75c1.22-1.44,2.81-2.7,3.58-4.34.39-.83.77-1.66,1.14-2.51-1.58,0-3.16,0-4.75,0-1.5,0-3.01,0-4.51,0,.34.85.68,1.69,1.05,2.53.71,1.64,2.3,2.89,3.49,4.32Z"/>
        <path class="cls-1" d="m85.39,41.92c2.66.93,5.26,2.2,8,2.7.06.01.12.02.18.03,0-3.68,0-7.37-.02-11.05-.7.61-1.46,1.26-2.3,1.95-2.2,1.82-3.92,4.23-5.85,6.36Z"/>
        <path class="cls-1" d="m20.15,42.67c-.79-1.52-1.25-3.42-2.44-4.5-1.85-1.69-3.78-3.29-5.86-4.98-.02,3.89-.03,7.78-.04,11.66,1.36-.12,2.71-.25,4.05-.41,1.48-.17,2.86-1.16,4.29-1.77Z"/>
        <path class="cls-1" d="m73.24,81.02c-.23,1.71-.9,3.5-.59,5.11.47,2.44,1.05,4.87,1.68,7.43.24,0,.49,0,.73,0,5.06-.01,9.56-1.92,12.86-5.06-3.5-2.43-6.5-4.52-9.63-6.41-1.39-.84-3.35-.74-5.06-1.07Z"/>
        <path class="cls-1" d="m78.05,33.04c2.33-5.85,5.59-11.34,8.58-17.2-2.97-2.33-6.74-3.72-10.97-3.89-16.55,19.2-27.77,20.46-45.2-.03-4.05.03-7.7,1.18-10.68,3.19,3.45,8.25,6.83,14.97,8.95,22.05,1.99,6.62-3.56,15.63-10.79,19.31-1.99,1.01-4.01,1.99-6.13,3,0,4.54.02,9.07.04,13.61,19.2-4.89,30.81-2.17,34.4,20.51,4.35,0,8.7,0,13.05,0,.89-6.3,2.04-12.13,6.66-16.95,4.63-4.83,10.54-6.44,17.1-5.47,3.37.5,6.73,1.1,10.48,1.77.02-4.44.03-8.88.04-13.33-3.38-1.86-6.54-3.68-9.51-5.76-6.38-4.49-8.95-13.45-6.02-20.8Z"/>
        <path class="cls-2" d="m105.26,49.34c-.08-1.21-.19-2.4-.35-3.59-.93-6.95-3.2-13.46-6.54-19.28-.94-1.63-1.96-3.21-3.06-4.73-7.56-10.4-18.81-17.92-31.86-20.63-.47-.1-.95-.18-1.43-.26C59.03.31,55.97.01,52.84,0c-2.99-.01-5.93.24-8.79.72-.9.15-1.79.32-2.67.52C26.52,4.51,13.94,14.11,6.68,27.02c-.26.46-.5.92-.75,1.39-2.78,5.32-4.67,11.15-5.48,17.32-.15,1.19-.28,2.38-.35,3.59-.06.96-.09,1.92-.1,2.9-.06,13.29,4.69,25.4,12.6,34.7.64.75,1.3,1.49,1.98,2.2,4.25,4.46,9.28,8.18,14.88,10.93,1.96.96,3.99,1.79,6.07,2.51,5.33,1.83,11.04,2.85,17.01,2.89,6.71.04,13.15-1.22,19.08-3.51,1.48-.57,2.93-1.21,4.34-1.91,5.22-2.59,9.96-6.01,14.03-10.11,1.68-1.69,3.26-3.5,4.71-5.4,6.65-8.77,10.63-19.68,10.68-31.47,0-1.25-.05-2.49-.13-3.72ZM52.72,11.9c1.58,0,3.16,0,4.75,0-.37.84-.75,1.68-1.14,2.51-.78,1.64-2.37,2.91-3.58,4.34-1.19-1.43-2.78-2.68-3.49-4.32-.36-.83-.71-1.68-1.05-2.53,1.5,0,3.01,0,4.51,0ZM11.84,33.19c2.08,1.69,4.01,3.29,5.86,4.98,1.19,1.09,1.65,2.98,2.44,4.5-1.43.61-2.81,1.6-4.29,1.77-1.34.15-2.69.29-4.05.41,0-3.89.01-7.78.04-11.66Zm21.53,52.67c-.6,2.54-1.29,5.07-2.03,7.7-.36,0-.72,0-1.08,0-4.99-.01-9.43-1.89-12.71-4.98.16-.09.32-.19.48-.29,3.37-2.19,6.69-4.48,10.2-6.41,1.25-.68,3.57-1.11,4.38-.43.89.75,1.09,3.01.76,4.42Zm41.7,7.7c-.24,0-.49,0-.73,0-.64-2.56-1.21-4.99-1.68-7.43-.31-1.61.37-3.4.59-5.11,1.7.33,3.66.23,5.06,1.07,3.12,1.89,6.12,3.98,9.63,6.41-3.3,3.14-7.8,5.05-12.86,5.06Zm18.46-20.63c-3.75-.67-7.11-1.27-10.48-1.77-6.55-.97-12.46.63-17.1,5.47-4.62,4.82-5.77,10.65-6.66,16.95-4.35,0-8.7,0-13.05,0-3.59-22.68-15.2-25.4-34.4-20.51-.02-4.54-.03-9.07-.04-13.61,2.12-1.01,4.14-1.98,6.13-3,7.24-3.69,12.78-12.69,10.79-19.31-2.13-7.09-5.5-13.81-8.95-22.05,2.98-2,6.63-3.15,10.68-3.19,17.44,20.49,28.65,19.24,45.2.03,4.23.17,7.99,1.57,10.97,3.89-2.99,5.86-6.25,11.35-8.58,17.2-2.93,7.34-.37,16.31,6.02,20.8,2.96,2.08,6.13,3.9,9.51,5.76,0,4.44-.02,8.88-.04,13.33Zm-.14-28.31c-2.74-.5-5.34-1.77-8-2.7,1.94-2.14,3.65-4.55,5.85-6.36.84-.7,1.61-1.34,2.3-1.95.01,3.68.02,7.37.02,11.05-.06-.01-.12-.02-.18-.03Z"/>
      </g>
      <path class="cls-2" d="m32.33,52.59c0-11.65,8.01-20.51,20.96-20.51,11.32,0,18.83,6.11,20,16.02h-10.48c-.84-4.26-4.48-6.78-9.47-6.78-6.11,0-10.48,3.47-10.48,11.26s4.37,11.32,10.48,11.32c4.99,0,8.63-2.58,9.47-6.84h10.48c-1.18,9.97-8.68,16.08-20,16.08-12.94,0-20.96-8.85-20.96-20.56Z"/>
    </g>
  </g>
</svg>